<svg width="23" height="23" viewBox="0 0 23 23" fill="none" xmlns="http://www.w3.org/2000/svg">
<g id="heroicons-mini/home">
<path id="Vector 504 (Stroke)" fill-rule="evenodd" clip-rule="evenodd" d="M10.6867 2.63688C11.1358 2.18777 11.8639 2.18777 12.313 2.63688L20.363 10.6869C20.6919 11.0158 20.7903 11.5104 20.6123 11.9401C20.4343 12.3699 20.015 12.65 19.5498 12.65H18.3998V19.55C18.3998 20.1852 17.885 20.7 17.2498 20.7H14.9498C14.3147 20.7 13.7998 20.1852 13.7998 19.55V16.1C13.7998 15.4649 13.285 14.95 12.6498 14.95H10.3498C9.71471 14.95 9.19984 15.4649 9.19984 16.1V19.55C9.19984 20.1852 8.68497 20.7 8.04984 20.7H5.74984C5.11471 20.7 4.59984 20.1852 4.59984 19.55V12.65H3.44984C2.98471 12.65 2.56537 12.3699 2.38738 11.9401C2.20938 11.5104 2.30777 11.0158 2.63667 10.6869L10.6867 2.63688Z" fill="white"/>
</g>
</svg>
